<svg id="Layer_1" data-name="Layer 1" xmlns="http://www.w3.org/2000/svg" width="656.03" height="708.1" viewBox="0 0 656.03 708.1"><defs><style>.cls-1{fill:#352634;}.cls-2{fill:#fff;}.cls-3{fill:#f9f9f9;}</style></defs><title>modul_info</title><rect class="cls-1" width="656.03" height="708.1"/><path class="cls-2" d="M121.51,98.44a37.67,37.67,0,0,1-12.42,2.22c-6.12,0-11.16-1.56-15.12-5.34-3.48-3.36-5.64-8.76-5.64-15.06.06-12.06,8.34-20.88,21.9-20.88a25,25,0,0,1,10.08,1.86l-1.26,4.26a21,21,0,0,0-8.94-1.74c-9.84,0-16.26,6.12-16.26,16.26s6.18,16.32,15.6,16.32c3.42,0,5.76-.48,7-1.08V83.2h-8.22V79h13.32Z"/><path class="cls-2" d="M129.31,80.26c0-3.42-.06-6.36-.24-9.06h4.62l.18,5.7h.24c1.32-3.9,4.5-6.36,8-6.36a5.71,5.71,0,0,1,1.5.18v5a7.93,7.93,0,0,0-1.8-.18c-3.72,0-6.36,2.82-7.08,6.78a14.86,14.86,0,0,0-.24,2.46v15.48h-5.22Z"/><path class="cls-2" d="M173.23,92.32c0,3,.06,5.64.24,7.92h-4.68l-.3-4.74h-.12a10.93,10.93,0,0,1-9.6,5.4c-4.56,0-10-2.52-10-12.72v-17H154V87.28c0,5.52,1.68,9.24,6.48,9.24a7.63,7.63,0,0,0,7-4.8A7.72,7.72,0,0,0,168,89V71.2h5.28Z"/><path class="cls-2" d="M182,79.06c0-3-.06-5.46-.24-7.86h4.68l.3,4.8h.12a10.68,10.68,0,0,1,9.6-5.46c4,0,10.26,2.4,10.26,12.36v17.34h-5.28V83.5c0-4.68-1.74-8.58-6.72-8.58a7.5,7.5,0,0,0-7.08,5.4,7.59,7.59,0,0,0-.36,2.46v17.46H182Z"/><path class="cls-2" d="M240.37,57.64v35.1c0,2.58.06,5.52.24,7.5h-4.74l-.24-5h-.12a10.74,10.74,0,0,1-9.9,5.7c-7,0-12.42-5.94-12.42-14.76-.06-9.66,5.94-15.6,13-15.6,4.44,0,7.44,2.1,8.76,4.44h.12V57.64ZM235.09,83a9.32,9.32,0,0,0-.24-2.22,7.77,7.77,0,0,0-7.62-6.12c-5.46,0-8.7,4.8-8.7,11.22,0,5.88,2.88,10.74,8.58,10.74a7.94,7.94,0,0,0,7.74-6.3,9.17,9.17,0,0,0,.24-2.28Z"/><path class="cls-2" d="M249.13,57.64h5.28v42.6h-5.28Z"/><path class="cls-2" d="M283.51,86.26c-.18,6.9,3.78,10.56,9.24,10.56a16.87,16.87,0,0,0,7.92-1.68l1,3.72a20.64,20.64,0,0,1-9.54,2c-4.92,0-9.36-2.34-11-6.42h-.12c-1.86,4-5.82,6.42-10.8,6.42-6.06,0-9.06-4.08-9.06-8.28,0-6.72,6.24-10.62,17.52-10.5v-1.2a6.43,6.43,0,0,0-6.78-6.48,14.16,14.16,0,0,0-7.44,2.22l-1.26-3.48a18.41,18.41,0,0,1,9.06-2.64c5.22,0,8.16,2.46,9.36,6.18h.12a11,11,0,0,1,10.14-6.18c8.88,0,11.34,8.58,11.34,13.38a12.34,12.34,0,0,1-.18,2.34Zm-4.86-.6c-5.58-.12-12.36.84-12.36,6.54,0,3.06,2.28,4.8,5,4.8a7.1,7.1,0,0,0,7-5,6.14,6.14,0,0,0,.3-2.1ZM298,82.48c.18-2.94-1.44-8.16-6.78-8.16s-7.62,4.86-7.8,8.16Z"/><path class="cls-2" d="M334.69,71.2c-.12,2.1-.24,4.44-.24,8V96c0,6.66-1.32,10.74-4.14,13.26s-6.9,3.48-10.56,3.48c-3.48,0-7.32-.84-9.66-2.4l1.32-4a16.38,16.38,0,0,0,8.52,2.28c5.4,0,9.36-2.82,9.36-10.14V95.26h-.12a10.37,10.37,0,0,1-9.24,4.86c-7.2,0-12.36-6.12-12.36-14.16,0-9.84,6.42-15.42,13.08-15.42,5,0,7.8,2.64,9.06,5h.12l.24-4.38Zm-5.46,11.46a7.52,7.52,0,0,0-.3-2.4,7.61,7.61,0,0,0-7.38-5.58c-5,0-8.64,4.26-8.64,11,0,5.7,2.88,10.44,8.58,10.44a7.72,7.72,0,0,0,7.32-5.4,9.19,9.19,0,0,0,.42-2.82Z"/><path class="cls-2" d="M368.23,71.2c-.12,2.1-.24,4.44-.24,8V96c0,6.66-1.32,10.74-4.14,13.26s-6.9,3.48-10.56,3.48c-3.48,0-7.32-.84-9.66-2.4l1.32-4a16.38,16.38,0,0,0,8.52,2.28c5.4,0,9.36-2.82,9.36-10.14V95.26h-.12a10.37,10.37,0,0,1-9.24,4.86c-7.2,0-12.36-6.12-12.36-14.16,0-9.84,6.42-15.42,13.08-15.42,5,0,7.8,2.64,9.06,5h.12l.24-4.38Zm-5.46,11.46a7.52,7.52,0,0,0-.3-2.4,7.61,7.61,0,0,0-7.38-5.58c-5,0-8.64,4.26-8.64,11,0,5.7,2.88,10.44,8.58,10.44a7.72,7.72,0,0,0,7.32-5.4,9.19,9.19,0,0,0,.42-2.82Z"/><path class="cls-2" d="M379.69,86.68c.12,7.14,4.68,10.08,10,10.08a19.09,19.09,0,0,0,8-1.5l.9,3.78a23.52,23.52,0,0,1-9.66,1.8c-8.94,0-14.28-5.88-14.28-14.64s5.16-15.66,13.62-15.66c9.48,0,12,8.34,12,13.68a19.91,19.91,0,0,1-.18,2.46Zm15.48-3.78c.06-3.36-1.38-8.58-7.32-8.58-5.34,0-7.68,4.92-8.1,8.58Z"/><path class="cls-2" d="M406.81,79.06c0-3-.06-5.46-.24-7.86h4.68l.3,4.8h.12a10.68,10.68,0,0,1,9.6-5.46c4,0,10.26,2.4,10.26,12.36v17.34h-5.28V83.5c0-4.68-1.74-8.58-6.72-8.58a7.5,7.5,0,0,0-7.08,5.4,7.59,7.59,0,0,0-.36,2.46v17.46h-5.28Z"/><path class="cls-2" d="M465.19,57.64v35.1c0,2.58.06,5.52.24,7.5h-4.74l-.24-5h-.12a10.74,10.74,0,0,1-9.9,5.7c-7,0-12.42-5.94-12.42-14.76-.06-9.66,5.94-15.6,13-15.6,4.44,0,7.44,2.1,8.76,4.44h.12V57.64ZM459.91,83a9.32,9.32,0,0,0-.24-2.22,7.77,7.77,0,0,0-7.62-6.12c-5.46,0-8.7,4.8-8.7,11.22,0,5.88,2.88,10.74,8.58,10.74a7.94,7.94,0,0,0,7.74-6.3,9.17,9.17,0,0,0,.24-2.28Z"/><path class="cls-2" d="M476.89,86.68c.12,7.14,4.68,10.08,10,10.08a19.09,19.09,0,0,0,8-1.5l.9,3.78a23.52,23.52,0,0,1-9.66,1.8c-8.94,0-14.28-5.88-14.28-14.64S477,70.54,485.47,70.54c9.48,0,12,8.34,12,13.68a19.91,19.91,0,0,1-.18,2.46Zm15.48-3.78c.06-3.36-1.38-8.58-7.32-8.58-5.34,0-7.68,4.92-8.1,8.58Z"/><path class="cls-2" d="M522.13,59.8V83.74c0,9.06,4,12.9,9.42,12.9,6,0,9.84-4,9.84-12.9V59.8h5.28V83.38c0,12.42-6.54,17.52-15.3,17.52-8.28,0-14.52-4.74-14.52-17.28V59.8Z"/><path class="cls-2" d="M577.87,100.24l-5.16-8.94c-2.1-3.42-3.42-5.64-4.68-8h-.12c-1.14,2.34-2.28,4.5-4.38,8l-4.86,8.88h-6L565,79.78l-11.88-20h6.06l5.34,9.48c1.5,2.64,2.64,4.68,3.72,6.84h.18c1.14-2.4,2.16-4.26,3.66-6.84l5.52-9.48h6l-12.3,19.68,12.6,20.76Z"/><path class="cls-2" d="M92,205.36V179.6h3.41v25.76Z"/><path class="cls-2" d="M101,205.36V186.7h2.84v2.65a6.74,6.74,0,0,1,5.95-3.08,7.86,7.86,0,0,1,3.1.61,5,5,0,0,1,2.12,1.59,6.17,6.17,0,0,1,1,2.34,17.74,17.74,0,0,1,.18,3.08v11.47H113V194a8.41,8.41,0,0,0-.37-2.89,3,3,0,0,0-1.31-1.53,4.14,4.14,0,0,0-2.2-.57,5.1,5.1,0,0,0-3.49,1.28q-1.47,1.29-1.47,4.87v10.19Z"/><path class="cls-2" d="M121.8,205.36v-16.2H119V186.7h2.79v-2a8.68,8.68,0,0,1,.34-2.79,4,4,0,0,1,1.61-2,5.77,5.77,0,0,1,3.22-.76,15.61,15.61,0,0,1,3,.31l-.48,2.76a10.37,10.37,0,0,0-1.86-.17,2.78,2.78,0,0,0-2,.61,3.33,3.33,0,0,0-.6,2.3v1.73h3.64v2.46H125v16.2Z"/><path class="cls-2" d="M129.87,196q0-5.19,2.89-7.68a8.69,8.69,0,0,1,5.87-2.08,8.39,8.39,0,0,1,6.29,2.53,9.58,9.58,0,0,1,2.44,7,12.38,12.38,0,0,1-1.08,5.67,7.68,7.68,0,0,1-3.14,3.2,9.09,9.09,0,0,1-4.51,1.15,8.38,8.38,0,0,1-6.34-2.52C130.68,201.6,129.87,199.18,129.87,196Zm3.25,0a8,8,0,0,0,1.57,5.37,5.22,5.22,0,0,0,7.86,0c1-1.19,1.56-3,1.56-5.46a7.71,7.71,0,0,0-1.57-5.25,5.21,5.21,0,0,0-7.85,0A7.92,7.92,0,0,0,133.12,196Z"/><rect class="cls-2" x="88.53" y="216.27" width="496.23" height="135.54"/><path d="M91.82,248.49V231.31h5.91a14.68,14.68,0,0,1,3.06.24,5.74,5.74,0,0,1,2.52,1.24,6.93,6.93,0,0,1,2,2.93,13,13,0,0,1,.21,7.55,8.24,8.24,0,0,1-1.17,2.51,6.35,6.35,0,0,1-1.56,1.55,6.5,6.5,0,0,1-2,.87,12.12,12.12,0,0,1-2.76.29Zm2.27-2h3.67a8.55,8.55,0,0,0,2.66-.32,3.67,3.67,0,0,0,1.54-.89,5.39,5.39,0,0,0,1.26-2.17,10.33,10.33,0,0,0,.46-3.31,8,8,0,0,0-.89-4.14,4.45,4.45,0,0,0-2.15-1.94,8.75,8.75,0,0,0-2.94-.35H94.09Z"/><path d="M117.4,244.48l2.18.27a5.34,5.34,0,0,1-1.91,3,6.46,6.46,0,0,1-7.89-.62,6.57,6.57,0,0,1-1.6-4.72,6.85,6.85,0,0,1,1.61-4.87,5.48,5.48,0,0,1,4.2-1.74,5.35,5.35,0,0,1,4.08,1.7,6.77,6.77,0,0,1,1.58,4.78c0,.13,0,.31,0,.56h-9.28a4.74,4.74,0,0,0,1.16,3.15,3.46,3.46,0,0,0,2.6,1.09,3.28,3.28,0,0,0,2-.61A4.13,4.13,0,0,0,117.4,244.48Zm-6.93-3.41h7a4.19,4.19,0,0,0-.8-2.36A3.22,3.22,0,0,0,114,237.5a3.33,3.33,0,0,0-2.44,1A3.84,3.84,0,0,0,110.47,241.07Z"/><path d="M126.83,246.6l.31,1.86a7.59,7.59,0,0,1-1.6.19,3.64,3.64,0,0,1-1.78-.36,2,2,0,0,1-.89-1,7.55,7.55,0,0,1-.26-2.49v-7.16h-1.54V236h1.54V233l2.1-1.26V236h2.12v1.64h-2.12V245a3.83,3.83,0,0,0,.11,1.16.92.92,0,0,0,.37.41,1.38,1.38,0,0,0,.72.15A6,6,0,0,0,126.83,246.6Z"/><path d="M136.07,248.49V237.68H134.2V236h1.87v-1.32a5.7,5.7,0,0,1,.22-1.86,2.67,2.67,0,0,1,1.07-1.33,3.86,3.86,0,0,1,2.15-.51,10.34,10.34,0,0,1,2,.21l-.32,1.84a6.84,6.84,0,0,0-1.24-.12,1.87,1.87,0,0,0-1.36.41,2.23,2.23,0,0,0-.4,1.53V236h2.43v1.64h-2.43v10.81Z"/><path d="M142.21,248.49V236h1.9v1.89a5.14,5.14,0,0,1,1.34-1.75,2.34,2.34,0,0,1,1.35-.42,4.17,4.17,0,0,1,2.17.68l-.73,2a3,3,0,0,0-1.54-.46,2,2,0,0,0-1.25.42,2.22,2.22,0,0,0-.78,1.15,8,8,0,0,0-.35,2.46v6.52Z"/><path d="M158.74,244.48l2.18.27a5.29,5.29,0,0,1-1.91,3,6.46,6.46,0,0,1-7.89-.62,6.57,6.57,0,0,1-1.6-4.72,6.85,6.85,0,0,1,1.62-4.87,5.44,5.44,0,0,1,4.19-1.74,5.32,5.32,0,0,1,4.08,1.7,6.77,6.77,0,0,1,1.58,4.78c0,.13,0,.31,0,.56H151.7a4.8,4.8,0,0,0,1.16,3.15,3.46,3.46,0,0,0,2.6,1.09,3.28,3.28,0,0,0,2-.61A4.06,4.06,0,0,0,158.74,244.48Zm-6.92-3.41h7a4.27,4.27,0,0,0-.8-2.36,3.22,3.22,0,0,0-2.61-1.21,3.36,3.36,0,0,0-2.45,1A3.84,3.84,0,0,0,151.82,241.07Z"/><path d="M171.64,248.49v-1.57a3.86,3.86,0,0,1-3.48,1.85,4.84,4.84,0,0,1-2.73-.82,5.46,5.46,0,0,1-1.94-2.29,8,8,0,0,1-.68-3.38,8.92,8.92,0,0,1,.62-3.38,4.83,4.83,0,0,1,1.86-2.33,5,5,0,0,1,2.78-.81,4.08,4.08,0,0,1,2,.48,4,4,0,0,1,1.43,1.23v-6.16h2.1v17.18ZM165,242.28a5.41,5.41,0,0,0,1,3.57,3.06,3.06,0,0,0,2.38,1.19,3,3,0,0,0,2.35-1.14,5.17,5.17,0,0,0,1-3.45,5.9,5.9,0,0,0-1-3.75,3.06,3.06,0,0,0-2.43-1.19,2.91,2.91,0,0,0-2.35,1.15A5.65,5.65,0,0,0,165,242.28Z"/><path d="M185,247a7.58,7.58,0,0,1-2.26,1.41,6.54,6.54,0,0,1-2.32.41,4.54,4.54,0,0,1-3.16-1,3.32,3.32,0,0,1-1.1-2.56,3.37,3.37,0,0,1,.42-1.67,3.48,3.48,0,0,1,1.09-1.22,5.28,5.28,0,0,1,1.52-.69,14.86,14.86,0,0,1,1.87-.31,19.81,19.81,0,0,0,3.76-.73c0-.29,0-.47,0-.55a2.33,2.33,0,0,0-.59-1.82,3.57,3.57,0,0,0-2.41-.71,3.68,3.68,0,0,0-2.19.52,3.22,3.22,0,0,0-1.05,1.84l-2.06-.28a5.07,5.07,0,0,1,.92-2.14,4,4,0,0,1,1.87-1.25,8.35,8.35,0,0,1,2.82-.44,7.46,7.46,0,0,1,2.59.38,3.39,3.39,0,0,1,1.46.94,3.2,3.2,0,0,1,.66,1.44,11.59,11.59,0,0,1,.11,1.94v2.81a30.21,30.21,0,0,0,.13,3.72,4.89,4.89,0,0,0,.53,1.5h-2.2A4.41,4.41,0,0,1,185,247Zm-.18-4.71a15.54,15.54,0,0,1-3.44.8,7.52,7.52,0,0,0-1.84.42,1.83,1.83,0,0,0-.83.69,1.76,1.76,0,0,0-.3,1,1.8,1.8,0,0,0,.64,1.4,2.73,2.73,0,0,0,1.87.57,4.31,4.31,0,0,0,2.17-.54,3.21,3.21,0,0,0,1.39-1.46,5,5,0,0,0,.34-2.1Z"/><path d="M189.88,249.52l2.05.3a2,2,0,0,0,.71,1.39,3.54,3.54,0,0,0,2.15.58,3.76,3.76,0,0,0,2.26-.58,2.91,2.91,0,0,0,1.08-1.64,13.38,13.38,0,0,0,.15-2.71,4.32,4.32,0,0,1-3.44,1.63,4.71,4.71,0,0,1-4-1.85,7.19,7.19,0,0,1-1.4-4.44,8.25,8.25,0,0,1,.64-3.29,4.92,4.92,0,0,1,4.75-3.15,4.47,4.47,0,0,1,3.63,1.78V236h2V246.8a10.08,10.08,0,0,1-.6,4.12,4.33,4.33,0,0,1-1.87,1.92,6.62,6.62,0,0,1-3.16.7,6,6,0,0,1-3.6-1A3.41,3.41,0,0,1,189.88,249.52Zm1.74-7.48a5.39,5.39,0,0,0,1,3.58,3.21,3.21,0,0,0,4.87,0,5.18,5.18,0,0,0,1-3.51,5.07,5.07,0,0,0-1-3.44,3.1,3.1,0,0,0-2.44-1.16,3,3,0,0,0-2.39,1.14A5,5,0,0,0,191.62,242Z"/><path d="M204.16,248.49v-2.4h2.41v2.4a4.32,4.32,0,0,1-.47,2.14,3.08,3.08,0,0,1-1.49,1.26L204,251a2,2,0,0,0,1-.86,3.62,3.62,0,0,0,.35-1.63Z"/><path d="M225,248.49v-1.57a3.88,3.88,0,0,1-3.48,1.85,4.84,4.84,0,0,1-2.73-.82,5.39,5.39,0,0,1-1.94-2.29,8,8,0,0,1-.68-3.38,8.73,8.73,0,0,1,.62-3.38,4.83,4.83,0,0,1,1.86-2.33,5,5,0,0,1,2.78-.81,4.08,4.08,0,0,1,2,.48,4,4,0,0,1,1.43,1.23v-6.16H227v17.18Zm-6.66-6.21a5.41,5.41,0,0,0,1,3.57,3.06,3.06,0,0,0,2.38,1.19,3,3,0,0,0,2.35-1.14,5.17,5.17,0,0,0,1-3.45,5.84,5.84,0,0,0-1-3.75,3,3,0,0,0-2.42-1.19,2.91,2.91,0,0,0-2.35,1.15A5.65,5.65,0,0,0,218.36,242.28Z"/><path d="M238.82,244.48l2.18.27a5.34,5.34,0,0,1-1.91,3,6.47,6.47,0,0,1-7.9-.62,6.61,6.61,0,0,1-1.6-4.72,6.85,6.85,0,0,1,1.62-4.87,5.48,5.48,0,0,1,4.2-1.74,5.31,5.31,0,0,1,4.07,1.7,6.73,6.73,0,0,1,1.59,4.78c0,.13,0,.31,0,.56h-9.28a4.85,4.85,0,0,0,1.16,3.15,3.5,3.5,0,0,0,2.61,1.09,3.28,3.28,0,0,0,2-.61A4.13,4.13,0,0,0,238.82,244.48Zm-6.93-3.41h7a4.19,4.19,0,0,0-.8-2.36,3.22,3.22,0,0,0-2.61-1.21,3.33,3.33,0,0,0-2.44,1A3.84,3.84,0,0,0,231.89,241.07Z"/><path d="M248.25,246.6l.3,1.86a7.43,7.43,0,0,1-1.59.19,3.64,3.64,0,0,1-1.78-.36,2,2,0,0,1-.89-1,7.55,7.55,0,0,1-.26-2.49v-7.16h-1.55V236H244V233l2.1-1.26V236h2.12v1.64h-2.12V245a3.83,3.83,0,0,0,.11,1.16.89.89,0,0,0,.36.41,1.43,1.43,0,0,0,.72.15A6,6,0,0,0,248.25,246.6Z"/><path d="M258.93,248.49h-2V231.31h2.11v6.13a4.17,4.17,0,0,1,3.41-1.68,5.35,5.35,0,0,1,2.17.46,4.41,4.41,0,0,1,1.69,1.31,6.21,6.21,0,0,1,1,2,8.32,8.32,0,0,1,.37,2.53,7.11,7.11,0,0,1-1.58,4.94,4.94,4.94,0,0,1-3.8,1.75,3.94,3.94,0,0,1-3.45-1.84Zm0-6.32a6.57,6.57,0,0,0,.61,3.24,3,3,0,0,0,5.09.42,5.46,5.46,0,0,0,1-3.58,5.56,5.56,0,0,0-1-3.59,2.94,2.94,0,0,0-2.34-1.16,3,3,0,0,0-2.39,1.2A5.28,5.28,0,0,0,258.9,242.17Z"/><path d="M278.45,247a7.58,7.58,0,0,1-2.26,1.41,6.54,6.54,0,0,1-2.32.41,4.54,4.54,0,0,1-3.16-1,3.32,3.32,0,0,1-1.1-2.56,3.37,3.37,0,0,1,.42-1.67,3.48,3.48,0,0,1,1.09-1.22,5.28,5.28,0,0,1,1.52-.69,14.86,14.86,0,0,1,1.87-.31,19.81,19.81,0,0,0,3.76-.73c0-.29,0-.47,0-.55a2.33,2.33,0,0,0-.6-1.82,3.56,3.56,0,0,0-2.4-.71,3.7,3.7,0,0,0-2.2.52,3.22,3.22,0,0,0-1,1.84l-2.06-.28a5.07,5.07,0,0,1,.92-2.14,4,4,0,0,1,1.87-1.25,8.35,8.35,0,0,1,2.82-.44,7.46,7.46,0,0,1,2.59.38,3.39,3.39,0,0,1,1.46.94,3.2,3.2,0,0,1,.66,1.44,11.59,11.59,0,0,1,.11,1.94v2.81a30.21,30.21,0,0,0,.13,3.72,4.89,4.89,0,0,0,.53,1.5h-2.2A4.41,4.41,0,0,1,278.45,247Zm-.18-4.71a15.54,15.54,0,0,1-3.44.8,7.52,7.52,0,0,0-1.84.42,1.83,1.83,0,0,0-.83.69,1.76,1.76,0,0,0-.3,1,1.8,1.8,0,0,0,.64,1.4,2.73,2.73,0,0,0,1.87.57,4.31,4.31,0,0,0,2.17-.54,3.21,3.21,0,0,0,1.39-1.46,5,5,0,0,0,.34-2.1Z"/><path d="M281,253.32l.4-1.8a4.22,4.22,0,0,0,1,.17,1.13,1.13,0,0,0,1-.43,4.43,4.43,0,0,0,.31-2.14V236h2.11v13.13a6.26,6.26,0,0,1-.59,3.2,2.81,2.81,0,0,1-2.54,1.17A6.44,6.44,0,0,1,281,253.32Zm2.67-19.56v-2.45h2.11v2.45Z"/><path d="M297.53,244.48l2.18.27a5.34,5.34,0,0,1-1.91,3,6.47,6.47,0,0,1-7.9-.62,6.61,6.61,0,0,1-1.6-4.72,6.85,6.85,0,0,1,1.62-4.87,5.48,5.48,0,0,1,4.2-1.74,5.35,5.35,0,0,1,4.08,1.7,6.77,6.77,0,0,1,1.58,4.78c0,.13,0,.31,0,.56h-9.29a4.85,4.85,0,0,0,1.16,3.15,3.5,3.5,0,0,0,2.61,1.09,3.28,3.28,0,0,0,2-.61A4.13,4.13,0,0,0,297.53,244.48Zm-6.93-3.41h6.95a4.19,4.19,0,0,0-.8-2.36,3.22,3.22,0,0,0-2.61-1.21,3.33,3.33,0,0,0-2.44,1A3.84,3.84,0,0,0,290.6,241.07Z"/><path d="M302.33,248.49V236h1.9v1.89a5.14,5.14,0,0,1,1.34-1.75,2.35,2.35,0,0,1,1.36-.42,4.11,4.11,0,0,1,2.16.68l-.72,2a3,3,0,0,0-1.55-.46,2,2,0,0,0-1.24.42,2.23,2.23,0,0,0-.79,1.15,8.36,8.36,0,0,0-.35,2.46v6.52Z"/><path d="M309.57,248.49v-2.4H312v2.4a4.32,4.32,0,0,1-.47,2.14,3.08,3.08,0,0,1-1.49,1.26l-.59-.91a2,2,0,0,0,1-.86,3.62,3.62,0,0,0,.35-1.63Z"/><path d="M330.43,248.49v-1.57a3.88,3.88,0,0,1-3.48,1.85,4.84,4.84,0,0,1-2.73-.82,5.39,5.39,0,0,1-1.94-2.29,8,8,0,0,1-.68-3.38,8.73,8.73,0,0,1,.62-3.38,4.83,4.83,0,0,1,1.86-2.33,5,5,0,0,1,2.78-.81,4.08,4.08,0,0,1,2,.48,4,4,0,0,1,1.43,1.23v-6.16h2.1v17.18Zm-6.66-6.21a5.41,5.41,0,0,0,1,3.57,3.06,3.06,0,0,0,2.38,1.19,3,3,0,0,0,2.35-1.14,5.17,5.17,0,0,0,1-3.45,5.84,5.84,0,0,0-1-3.75,3,3,0,0,0-2.42-1.19,2.91,2.91,0,0,0-2.35,1.15A5.65,5.65,0,0,0,323.77,242.28Z"/><path d="M344.23,244.48l2.18.27a5.34,5.34,0,0,1-1.91,3,6.47,6.47,0,0,1-7.9-.62,6.61,6.61,0,0,1-1.6-4.72,6.85,6.85,0,0,1,1.62-4.87,5.48,5.48,0,0,1,4.2-1.74,5.31,5.31,0,0,1,4.07,1.7,6.73,6.73,0,0,1,1.59,4.78c0,.13,0,.31,0,.56h-9.28a4.85,4.85,0,0,0,1.16,3.15A3.5,3.5,0,0,0,341,247a3.28,3.28,0,0,0,2-.61A4.13,4.13,0,0,0,344.23,244.48Zm-6.93-3.41h6.95a4.19,4.19,0,0,0-.8-2.36,3.22,3.22,0,0,0-2.61-1.21,3.33,3.33,0,0,0-2.44,1A3.84,3.84,0,0,0,337.3,241.07Z"/><path d="M353.66,246.6l.3,1.86a7.43,7.43,0,0,1-1.59.19,3.64,3.64,0,0,1-1.78-.36,2,2,0,0,1-.89-1,7.55,7.55,0,0,1-.26-2.49v-7.16h-1.55V236h1.55V233l2.1-1.26V236h2.12v1.64h-2.12V245a3.83,3.83,0,0,0,.11,1.16.89.89,0,0,0,.36.41,1.43,1.43,0,0,0,.72.15A6,6,0,0,0,353.66,246.6Z"/><path d="M362,249.52l2.05.3a2,2,0,0,0,.72,1.39,3.51,3.51,0,0,0,2.14.58,3.81,3.81,0,0,0,2.27-.58,2.85,2.85,0,0,0,1.07-1.64,13.92,13.92,0,0,0,.16-2.71,4.34,4.34,0,0,1-3.45,1.63,4.71,4.71,0,0,1-4-1.85,7.14,7.14,0,0,1-1.41-4.44,8.26,8.26,0,0,1,.65-3.29,5.13,5.13,0,0,1,1.87-2.33,5.07,5.07,0,0,1,2.87-.82,4.5,4.5,0,0,1,3.64,1.78V236h1.94V246.8a10.29,10.29,0,0,1-.59,4.12,4.35,4.35,0,0,1-1.88,1.92,6.55,6.55,0,0,1-3.15.7,6,6,0,0,1-3.6-1A3.39,3.39,0,0,1,362,249.52Zm1.75-7.48a5.4,5.4,0,0,0,1,3.58,3.22,3.22,0,0,0,4.88,0,5.24,5.24,0,0,0,1-3.51,5.12,5.12,0,0,0-1-3.44,3.12,3.12,0,0,0-2.45-1.16,3.06,3.06,0,0,0-2.39,1.14A5.1,5.1,0,0,0,363.75,242Z"/><path d="M375,242.27a6.43,6.43,0,0,1,1.92-5.13,5.83,5.83,0,0,1,3.92-1.38,5.57,5.57,0,0,1,4.19,1.68,6.38,6.38,0,0,1,1.63,4.65,8.25,8.25,0,0,1-.72,3.78,5.1,5.1,0,0,1-2.1,2.14,6.05,6.05,0,0,1-3,.76,5.61,5.61,0,0,1-4.23-1.68A6.68,6.68,0,0,1,375,242.27Zm2.17,0a5.35,5.35,0,0,0,1,3.58,3.36,3.36,0,0,0,2.63,1.19,3.3,3.3,0,0,0,2.61-1.2,5.4,5.4,0,0,0,1.05-3.64,5.14,5.14,0,0,0-1.05-3.5,3.32,3.32,0,0,0-2.61-1.19,3.35,3.35,0,0,0-2.63,1.18A5.31,5.31,0,0,0,377.12,242.27Z"/><path d="M397.16,248.49v-1.57a3.88,3.88,0,0,1-3.48,1.85,4.89,4.89,0,0,1-2.74-.82,5.44,5.44,0,0,1-1.93-2.29,7.88,7.88,0,0,1-.69-3.38,8.74,8.74,0,0,1,.63-3.38,4.83,4.83,0,0,1,1.86-2.33,5,5,0,0,1,2.78-.81,4.19,4.19,0,0,1,3.43,1.71v-6.16h2.1v17.18Zm-6.67-6.21a5.41,5.41,0,0,0,1,3.57,3,3,0,0,0,2.38,1.19,3,3,0,0,0,2.35-1.14,5.22,5.22,0,0,0,1-3.45,5.84,5.84,0,0,0-1-3.75,3,3,0,0,0-2.42-1.19,2.9,2.9,0,0,0-2.35,1.15A5.64,5.64,0,0,0,390.49,242.28Z"/><path d="M407,246.6l.3,1.86a7.43,7.43,0,0,1-1.59.19,3.61,3.61,0,0,1-1.78-.36,2,2,0,0,1-.89-1,7.55,7.55,0,0,1-.26-2.49v-7.16h-1.55V236h1.55V233l2.1-1.26V236H407v1.64h-2.12V245a3.83,3.83,0,0,0,.11,1.16.84.84,0,0,0,.36.41,1.43,1.43,0,0,0,.72.15A6,6,0,0,0,407,246.6Z"/><circle class="cls-2" cx="106.94" cy="379.56" r="13.74"/><rect class="cls-2" x="85.49" y="399.51" width="42.91" height="34.63"/><circle class="cls-2" cx="186.86" cy="379.56" r="13.74"/><rect class="cls-2" x="165.4" y="399.51" width="42.91" height="34.63"/><circle class="cls-2" cx="260.61" cy="379.56" r="13.74"/><rect class="cls-2" x="239.16" y="399.51" width="42.91" height="34.63"/><path class="cls-3" d="M82,442.05a29.33,29.33,0,0,1,4.82-.38c2.49,0,4.31.58,5.46,1.62a5.22,5.22,0,0,1,1.7,4.07,5.74,5.74,0,0,1-1.5,4.16,8.07,8.07,0,0,1-5.94,2.13,9,9,0,0,1-2-.17v7.8H82Zm2.51,9.38a8.22,8.22,0,0,0,2.08.2c3,0,4.88-1.47,4.88-4.15s-1.82-3.82-4.59-3.82a10.21,10.21,0,0,0-2.37.21Z"/><path class="cls-3" d="M107.46,452.15H99.89v7h8.43v2.11H97.38V441.82h10.51v2.1h-8v6.15h7.57Z"/><path class="cls-3" d="M114.09,441.82v11.52c0,4.36,1.94,6.2,4.54,6.2,2.88,0,4.73-1.9,4.73-6.2V441.82h2.54v11.34c0,6-3.15,8.43-7.36,8.43-4,0-7-2.28-7-8.31V441.82Z"/><path class="cls-3" d="M134.24,441.82h2.51v13c0,5.16-2.54,6.75-5.89,6.75a8.09,8.09,0,0,1-2.68-.46l.37-2.05a6.08,6.08,0,0,0,2.11.38c2.25,0,3.58-1,3.58-4.82Z"/><path class="cls-3" d="M159.3,441.82h2.51v9.38h.09c.52-.75,1-1.44,1.53-2.08l5.94-7.3h3.12l-7,8.25L173,461.28h-3l-6.41-9.56-1.85,2.14v7.42H159.3Z"/><path class="cls-3" d="M178.38,455.16l-2,6.12h-2.6l6.61-19.46h3L190,461.28h-2.68l-2.08-6.12Zm6.38-2-1.91-5.6c-.43-1.27-.72-2.42-1-3.55h-.05c-.29,1.16-.61,2.34-1,3.52l-1.9,5.63Z"/><path class="cls-3" d="M192.9,442.08a26.11,26.11,0,0,1,4.82-.41c2.68,0,4.42.49,5.63,1.59a4.85,4.85,0,0,1,1.53,3.7,5.1,5.1,0,0,1-3.67,5V452c1.5.52,2.4,1.9,2.86,3.92a32.2,32.2,0,0,0,1.5,5.35H203a26.2,26.2,0,0,1-1.3-4.65c-.57-2.69-1.61-3.7-3.89-3.78h-2.37v8.43H192.9Zm2.51,8.86H198c2.68,0,4.39-1.47,4.39-3.7,0-2.51-1.82-3.6-4.48-3.63a10.07,10.07,0,0,0-2.48.23Z"/><path class="cls-3" d="M222.11,460.64a12.5,12.5,0,0,1-5.14.92c-5.48,0-9.61-3.46-9.61-9.84,0-6.09,4.13-10.22,10.16-10.22a10.33,10.33,0,0,1,4.62.87l-.6,2.05a9.06,9.06,0,0,0-3.93-.81c-4.56,0-7.59,2.91-7.59,8,0,4.77,2.74,7.83,7.47,7.83a10.07,10.07,0,0,0,4.1-.81Z"/><path class="cls-3" d="M237.5,442.08a24.3,24.3,0,0,1,4.59-.41c2.51,0,4.12.44,5.34,1.42a4.07,4.07,0,0,1,1.61,3.43,4.63,4.63,0,0,1-3.29,4.28v.05a5,5,0,0,1,4,4.88,5.25,5.25,0,0,1-1.65,3.9c-1.36,1.24-3.55,1.82-6.73,1.82a30.18,30.18,0,0,1-3.89-.23Zm2.51,8h2.28c2.65,0,4.21-1.38,4.21-3.26,0-2.28-1.73-3.17-4.27-3.17a10.57,10.57,0,0,0-2.22.17Zm0,9.33a12.91,12.91,0,0,0,2.11.12c2.59,0,5-1,5-3.79,0-2.65-2.28-3.75-5-3.75H240Z"/><path class="cls-3" d="M255.65,441.82v19.46h-2.51V441.82Z"/><path class="cls-3" d="M262.55,441.82V450H272v-8.14h2.54v19.46H272v-9.13h-9.41v9.13H260V441.82Z"/><path class="cls-3" d="M288.94,452.15h-7.57v7h8.43v2.11H278.86V441.82h10.51v2.1h-8v6.15h7.57Z"/><rect class="cls-2" x="79.9" y="528.9" width="496.23" height="135.54"/><path d="M83.58,561.11V543.93h2.27v17.18Z"/><path d="M89.59,561.11V548.67h1.9v1.77a4.46,4.46,0,0,1,4-2.05,5.2,5.2,0,0,1,2.07.4,3.33,3.33,0,0,1,1.41,1.06,4.06,4.06,0,0,1,.65,1.56,11.84,11.84,0,0,1,.12,2.05v7.65H97.59v-7.57a5.74,5.74,0,0,0-.24-1.92,2,2,0,0,0-.88-1,2.73,2.73,0,0,0-1.47-.38,3.39,3.39,0,0,0-2.32.85c-.66.57-1,1.65-1,3.25v6.79Z"/><path d="M102.55,562.15l2,.3a1.93,1.93,0,0,0,.71,1.38,3.54,3.54,0,0,0,2.15.59,3.78,3.78,0,0,0,2.26-.59,2.88,2.88,0,0,0,1.08-1.64,13.26,13.26,0,0,0,.15-2.7,4.34,4.34,0,0,1-3.44,1.62,4.69,4.69,0,0,1-4-1.85,7.15,7.15,0,0,1-1.4-4.44,8.29,8.29,0,0,1,.64-3.29,5.1,5.1,0,0,1,1.87-2.32,5,5,0,0,1,2.88-.82,4.44,4.44,0,0,1,3.63,1.78v-1.5h1.95v10.76a10.11,10.11,0,0,1-.6,4.12,4.36,4.36,0,0,1-1.87,1.91,6.5,6.5,0,0,1-3.16.7,6,6,0,0,1-3.6-1A3.39,3.39,0,0,1,102.55,562.15Zm1.74-7.48a5.38,5.38,0,0,0,1,3.57,3.09,3.09,0,0,0,2.43,1.13,3.13,3.13,0,0,0,2.44-1.12,5.22,5.22,0,0,0,1-3.51,5.11,5.11,0,0,0-1-3.45,3.13,3.13,0,0,0-2.44-1.16,3,3,0,0,0-2.39,1.15A5,5,0,0,0,104.29,554.67Z"/><path d="M124.8,557.11l2.18.27a5.29,5.29,0,0,1-1.91,3,5.77,5.77,0,0,1-3.56,1.06,5.71,5.71,0,0,1-4.33-1.69,6.54,6.54,0,0,1-1.6-4.71,6.88,6.88,0,0,1,1.62-4.88,5.47,5.47,0,0,1,4.19-1.73,5.28,5.28,0,0,1,4.08,1.7,6.76,6.76,0,0,1,1.58,4.78c0,.12,0,.31,0,.56h-9.28a4.77,4.77,0,0,0,1.16,3.14,3.43,3.43,0,0,0,2.6,1.09,3.22,3.22,0,0,0,2-.61A4,4,0,0,0,124.8,557.11Zm-6.92-3.41h7a4.24,4.24,0,0,0-.8-2.36,3.23,3.23,0,0,0-2.61-1.22,3.4,3.4,0,0,0-2.45,1A3.86,3.86,0,0,0,117.88,553.7Z"/><path d="M129.63,561.11V548.67h1.9v1.77a4.46,4.46,0,0,1,4-2.05,5.2,5.2,0,0,1,2.07.4,3.21,3.21,0,0,1,1.41,1.06,4.23,4.23,0,0,1,.66,1.56,13.32,13.32,0,0,1,.11,2.05v7.65h-2.11v-7.57a5.74,5.74,0,0,0-.24-1.92,2.06,2.06,0,0,0-.87-1,2.74,2.74,0,0,0-1.48-.38,3.41,3.41,0,0,0-2.32.85c-.65.57-1,1.65-1,3.25v6.79Z"/><path d="M157.77,559.58a8.15,8.15,0,0,1-2.26,1.41,6.6,6.6,0,0,1-2.33.41,4.53,4.53,0,0,1-3.15-1,3.31,3.31,0,0,1-1.1-2.56,3.4,3.4,0,0,1,.42-1.67,3.35,3.35,0,0,1,1.09-1.21,5.08,5.08,0,0,1,1.51-.69,14.71,14.71,0,0,1,1.88-.32,19.19,19.19,0,0,0,3.76-.72c0-.29,0-.48,0-.56a2.36,2.36,0,0,0-.59-1.81,3.52,3.52,0,0,0-2.41-.72,3.68,3.68,0,0,0-2.19.53,3.08,3.08,0,0,0-1,1.84l-2.07-.28a5.15,5.15,0,0,1,.93-2.14,4.06,4.06,0,0,1,1.86-1.25,8.21,8.21,0,0,1,2.83-.44,7.52,7.52,0,0,1,2.59.37,3.4,3.4,0,0,1,1.46,1,3.33,3.33,0,0,1,.66,1.43,12.15,12.15,0,0,1,.1,2v2.81a29.41,29.41,0,0,0,.14,3.72,4.75,4.75,0,0,0,.53,1.49h-2.2A4.35,4.35,0,0,1,157.77,559.58Zm-.18-4.71a15.08,15.08,0,0,1-3.44.79,7.91,7.91,0,0,0-1.84.43,1.83,1.83,0,0,0-.84.68,1.85,1.85,0,0,0-.29,1,1.77,1.77,0,0,0,.64,1.41,2.73,2.73,0,0,0,1.87.56,4.33,4.33,0,0,0,2.17-.53,3.32,3.32,0,0,0,1.39-1.46,5.05,5.05,0,0,0,.34-2.11Z"/><path d="M163.5,561.11v-10.8h-1.87v-1.64h1.87v-1.33a5.79,5.79,0,0,1,.22-1.86,2.67,2.67,0,0,1,1.07-1.33,3.86,3.86,0,0,1,2.15-.51,10.34,10.34,0,0,1,2,.21l-.31,1.84a7,7,0,0,0-1.25-.11A1.83,1.83,0,0,0,166,546a2.24,2.24,0,0,0-.39,1.53v1.15H168v1.64H165.6v10.8Z"/><path d="M169.61,561.11V543.93h2.11v17.18Z"/><path d="M183.51,557.11l2.18.27a5.29,5.29,0,0,1-1.91,3,6.44,6.44,0,0,1-7.89-.63,6.54,6.54,0,0,1-1.6-4.71,6.88,6.88,0,0,1,1.62-4.88,5.48,5.48,0,0,1,4.19-1.73,5.28,5.28,0,0,1,4.08,1.7,6.71,6.71,0,0,1,1.58,4.78c0,.12,0,.31,0,.56h-9.28a4.77,4.77,0,0,0,1.16,3.14,3.44,3.44,0,0,0,2.6,1.09,3.18,3.18,0,0,0,2-.61A4,4,0,0,0,183.51,557.11Zm-6.92-3.41h6.95a4.24,4.24,0,0,0-.8-2.36,3.23,3.23,0,0,0-2.61-1.22,3.4,3.4,0,0,0-2.45,1A3.86,3.86,0,0,0,176.59,553.7Z"/><path d="M191.8,561.11l-4.74-12.44h2.23l2.67,7.45c.29.81.56,1.64.8,2.51q.28-1,.78-2.37l2.77-7.59h2.17l-4.71,12.44Z"/><path d="M208.86,557.11l2.18.27a5.29,5.29,0,0,1-1.91,3,5.77,5.77,0,0,1-3.56,1.06,5.69,5.69,0,0,1-4.33-1.69,6.54,6.54,0,0,1-1.6-4.71,6.88,6.88,0,0,1,1.62-4.88,5.47,5.47,0,0,1,4.19-1.73,5.31,5.31,0,0,1,4.08,1.7,6.76,6.76,0,0,1,1.58,4.78c0,.12,0,.31,0,.56h-9.28a4.77,4.77,0,0,0,1.16,3.14,3.43,3.43,0,0,0,2.6,1.09,3.22,3.22,0,0,0,2-.61A4,4,0,0,0,208.86,557.11Zm-6.93-3.41h6.95a4.24,4.24,0,0,0-.79-2.36,3.25,3.25,0,0,0-2.62-1.22,3.39,3.39,0,0,0-2.44,1A3.92,3.92,0,0,0,201.93,553.7Z"/><path d="M213.67,561.11V548.67h1.89v1.89a5.16,5.16,0,0,1,1.35-1.75,2.34,2.34,0,0,1,1.35-.42,4.08,4.08,0,0,1,2.17.68L219.7,551a3.06,3.06,0,0,0-1.55-.45,2.05,2.05,0,0,0-1.24.41,2.23,2.23,0,0,0-.78,1.16,8,8,0,0,0-.36,2.46v6.51Z"/><path d="M221.69,546.36v-2.43h2.11v2.43Zm0,14.75V548.67h2.11v12.44Z"/><path d="M227,561.11V548.67h1.9v1.77a4.48,4.48,0,0,1,4-2.05,5.2,5.2,0,0,1,2.07.4,3.21,3.21,0,0,1,1.41,1.06,4.07,4.07,0,0,1,.66,1.56,11.84,11.84,0,0,1,.12,2.05v7.65H235v-7.57a5.69,5.69,0,0,0-.25-1.92,2,2,0,0,0-.87-1,2.73,2.73,0,0,0-1.47-.38,3.42,3.42,0,0,0-2.33.85c-.65.57-1,1.65-1,3.25v6.79Z"/><path d="M240,562.15l2.05.3a2,2,0,0,0,.72,1.38,3.51,3.51,0,0,0,2.14.59,3.81,3.81,0,0,0,2.27-.59,2.82,2.82,0,0,0,1.07-1.64,13.79,13.79,0,0,0,.16-2.7,4.36,4.36,0,0,1-3.45,1.62,4.68,4.68,0,0,1-4-1.85,7.1,7.1,0,0,1-1.41-4.44,8.29,8.29,0,0,1,.65-3.29,5.1,5.1,0,0,1,1.87-2.32,5,5,0,0,1,2.87-.82,4.47,4.47,0,0,1,3.64,1.78v-1.5h1.94v10.76a10.33,10.33,0,0,1-.59,4.12,4.38,4.38,0,0,1-1.88,1.91,6.44,6.44,0,0,1-3.15.7,5.93,5.93,0,0,1-3.6-1A3.37,3.37,0,0,1,240,562.15Zm1.75-7.48a5.38,5.38,0,0,0,1,3.57,3.1,3.1,0,0,0,2.44,1.13,3.15,3.15,0,0,0,2.44-1.12,5.27,5.27,0,0,0,1-3.51,5.17,5.17,0,0,0-1-3.45,3.15,3.15,0,0,0-2.44-1.16,3,3,0,0,0-2.4,1.15A5.1,5.1,0,0,0,241.72,554.67Z"/><path d="M265,559.23l.31,1.86a7.59,7.59,0,0,1-1.6.19,3.52,3.52,0,0,1-1.78-.37A2,2,0,0,1,261,560a7.55,7.55,0,0,1-.26-2.49v-7.16h-1.54v-1.64h1.54v-3.08l2.1-1.27v4.35H265v1.64h-2.12v7.28a3.83,3.83,0,0,0,.11,1.16.92.92,0,0,0,.37.41,1.38,1.38,0,0,0,.72.15A7.61,7.61,0,0,0,265,559.23Z"/><path d="M267.06,546.36v-2.43h2.11v2.43Zm0,14.75V548.67h2.11v12.44Z"/><path d="M272.33,561.11V543.93h2.11v17.18Z"/><path d="M292.45,561.11v-1.57A3.87,3.87,0,0,1,289,561.4a5,5,0,0,1-2.74-.82,5.47,5.47,0,0,1-1.93-2.3,7.85,7.85,0,0,1-.69-3.38,8.74,8.74,0,0,1,.63-3.38,4.85,4.85,0,0,1,1.86-2.32,5,5,0,0,1,2.78-.81,4.12,4.12,0,0,1,3.43,1.71v-6.17h2.1v17.18Zm-6.67-6.21a5.42,5.42,0,0,0,1,3.58,3,3,0,0,0,2.38,1.18,3,3,0,0,0,2.35-1.13,5.22,5.22,0,0,0,1-3.45,5.84,5.84,0,0,0-1-3.75,3,3,0,0,0-2.42-1.2,2.93,2.93,0,0,0-2.35,1.15A5.66,5.66,0,0,0,285.78,554.9Z"/><path d="M305.85,559.58a8.3,8.3,0,0,1-2.26,1.41,6.6,6.6,0,0,1-2.33.41,4.53,4.53,0,0,1-3.15-1,3.31,3.31,0,0,1-1.1-2.56,3.4,3.4,0,0,1,.42-1.67,3.35,3.35,0,0,1,1.09-1.21,5,5,0,0,1,1.51-.69,14.71,14.71,0,0,1,1.88-.32,19.35,19.35,0,0,0,3.76-.72c0-.29,0-.48,0-.56a2.32,2.32,0,0,0-.6-1.81,3.51,3.51,0,0,0-2.4-.72,3.73,3.73,0,0,0-2.2.53,3.19,3.19,0,0,0-1.05,1.84l-2.06-.28a5.15,5.15,0,0,1,.93-2.14,4.06,4.06,0,0,1,1.86-1.25,8.17,8.17,0,0,1,2.83-.44,7.52,7.52,0,0,1,2.59.37,3.4,3.4,0,0,1,1.46,1,3.33,3.33,0,0,1,.66,1.43,12.15,12.15,0,0,1,.1,2v2.81a29.41,29.41,0,0,0,.14,3.72,4.51,4.51,0,0,0,.53,1.49h-2.2A4.35,4.35,0,0,1,305.85,559.58Zm-.18-4.71a15.19,15.19,0,0,1-3.45.79,8,8,0,0,0-1.84.43,1.81,1.81,0,0,0-.83.68,1.85,1.85,0,0,0-.29,1,1.77,1.77,0,0,0,.64,1.41,2.72,2.72,0,0,0,1.87.56,4.27,4.27,0,0,0,2.16-.53,3.29,3.29,0,0,0,1.4-1.46,5.05,5.05,0,0,0,.34-2.11Z"/><path d="M310.68,562.15l2.06.3a1.93,1.93,0,0,0,.71,1.38,3.52,3.52,0,0,0,2.15.59,3.78,3.78,0,0,0,2.26-.59,2.82,2.82,0,0,0,1.07-1.64,13,13,0,0,0,.16-2.7,4.35,4.35,0,0,1-3.45,1.62,4.68,4.68,0,0,1-4-1.85,7.1,7.1,0,0,1-1.41-4.44,8.29,8.29,0,0,1,.65-3.29,5.1,5.1,0,0,1,1.87-2.32,5,5,0,0,1,2.87-.82,4.47,4.47,0,0,1,3.64,1.78v-1.5h1.94v10.76a10.33,10.33,0,0,1-.59,4.12,4.36,4.36,0,0,1-1.87,1.91,6.5,6.5,0,0,1-3.16.7,5.93,5.93,0,0,1-3.6-1A3.4,3.4,0,0,1,310.68,562.15Zm1.75-7.48a5.44,5.44,0,0,0,1,3.57,3.1,3.1,0,0,0,2.44,1.13,3.15,3.15,0,0,0,2.44-1.12,5.27,5.27,0,0,0,1-3.51,5.11,5.11,0,0,0-1-3.45,3.15,3.15,0,0,0-2.44-1.16,3,3,0,0,0-2.39,1.15A5,5,0,0,0,312.43,554.67Z"/><path d="M332.94,557.11l2.18.27a5.34,5.34,0,0,1-1.91,3,5.77,5.77,0,0,1-3.56,1.06,5.69,5.69,0,0,1-4.33-1.69,6.54,6.54,0,0,1-1.6-4.71,6.92,6.92,0,0,1,1.61-4.88,5.5,5.5,0,0,1,4.2-1.73,5.31,5.31,0,0,1,4.08,1.7,6.76,6.76,0,0,1,1.58,4.78c0,.12,0,.31,0,.56H325.9a4.72,4.72,0,0,0,1.16,3.14,3.43,3.43,0,0,0,2.6,1.09,3.22,3.22,0,0,0,2-.61A4,4,0,0,0,332.94,557.11ZM326,553.7H333a4.24,4.24,0,0,0-.79-2.36,3.27,3.27,0,0,0-2.62-1.22,3.37,3.37,0,0,0-2.44,1A3.87,3.87,0,0,0,326,553.7Z"/><path d="M337.77,561.11V548.67h1.9v1.77a4.46,4.46,0,0,1,4-2.05,5.12,5.12,0,0,1,2.06.4,3.3,3.3,0,0,1,1.42,1.06,4.06,4.06,0,0,1,.65,1.56,11.84,11.84,0,0,1,.12,2.05v7.65h-2.11v-7.57a5.45,5.45,0,0,0-.25-1.92,2,2,0,0,0-.87-1,2.73,2.73,0,0,0-1.47-.38,3.43,3.43,0,0,0-2.33.85c-.65.57-1,1.65-1,3.25v6.79Z"/><path d="M351.67,561.11v-2.4h2.4v2.4a4.27,4.27,0,0,1-.47,2.14,3,3,0,0,1-1.49,1.26l-.59-.9a2,2,0,0,0,1-.86,3.64,3.64,0,0,0,.35-1.64Z"/><path d="M364.06,562.15l2.06.3a1.93,1.93,0,0,0,.71,1.38,3.51,3.51,0,0,0,2.14.59,3.79,3.79,0,0,0,2.27-.59,2.82,2.82,0,0,0,1.07-1.64,13.79,13.79,0,0,0,.16-2.7,4.36,4.36,0,0,1-3.45,1.62,4.68,4.68,0,0,1-4-1.85,7.1,7.1,0,0,1-1.41-4.44,8.29,8.29,0,0,1,.65-3.29,5.1,5.1,0,0,1,1.87-2.32,5,5,0,0,1,2.87-.82,4.47,4.47,0,0,1,3.64,1.78v-1.5h1.94v10.76a10.33,10.33,0,0,1-.59,4.12,4.38,4.38,0,0,1-1.88,1.91,6.44,6.44,0,0,1-3.15.7,5.93,5.93,0,0,1-3.6-1A3.37,3.37,0,0,1,364.06,562.15Zm1.75-7.48a5.38,5.38,0,0,0,1,3.57,3.1,3.1,0,0,0,2.44,1.13,3.15,3.15,0,0,0,2.44-1.12,5.27,5.27,0,0,0,1-3.51,5.17,5.17,0,0,0-1-3.45,3.15,3.15,0,0,0-2.44-1.16,3,3,0,0,0-2.4,1.15A5.1,5.1,0,0,0,365.81,554.67Z"/><path d="M377,554.89a6.39,6.39,0,0,1,1.93-5.12,5.79,5.79,0,0,1,3.91-1.38,5.57,5.57,0,0,1,4.19,1.68,6.38,6.38,0,0,1,1.63,4.65,8.18,8.18,0,0,1-.72,3.77,5.07,5.07,0,0,1-2.09,2.14,6.1,6.1,0,0,1-3,.77,5.61,5.61,0,0,1-4.23-1.68A6.72,6.72,0,0,1,377,554.89Zm2.17,0a5.31,5.31,0,0,0,1,3.58,3.36,3.36,0,0,0,2.63,1.19,3.32,3.32,0,0,0,2.61-1.19,5.43,5.43,0,0,0,1.05-3.65,5.15,5.15,0,0,0-1.05-3.5,3.48,3.48,0,0,0-5.24,0A5.3,5.3,0,0,0,379.18,554.89Z"/><path d="M399.22,561.11v-1.57a3.87,3.87,0,0,1-3.48,1.86,5,5,0,0,1-2.74-.82,5.47,5.47,0,0,1-1.93-2.3,7.85,7.85,0,0,1-.69-3.38,8.74,8.74,0,0,1,.63-3.38,4.85,4.85,0,0,1,1.86-2.32,5,5,0,0,1,2.78-.81,4.12,4.12,0,0,1,3.43,1.71v-6.17h2.1v17.18Zm-6.67-6.21a5.42,5.42,0,0,0,1,3.58,3,3,0,0,0,2.38,1.18,3,3,0,0,0,2.35-1.13,5.22,5.22,0,0,0,1-3.45,5.84,5.84,0,0,0-1-3.75,3,3,0,0,0-2.42-1.2,2.93,2.93,0,0,0-2.35,1.15A5.66,5.66,0,0,0,392.55,554.9Z"/><path d="M413.46,561.11l-3.81-12.44h2.18l2,7.18.74,2.67c0-.13.24-1,.64-2.56l2-7.29h2.17l1.87,7.22.62,2.38.71-2.41,2.13-7.19h2.05l-3.89,12.44h-2.19l-2-7.45-.48-2.12-2.52,9.57Z"/><path d="M437,557.11l2.18.27a5.29,5.29,0,0,1-1.91,3,6.44,6.44,0,0,1-7.89-.63,6.54,6.54,0,0,1-1.6-4.71,6.88,6.88,0,0,1,1.62-4.88,5.48,5.48,0,0,1,4.19-1.73,5.28,5.28,0,0,1,4.08,1.7,6.71,6.71,0,0,1,1.58,4.78c0,.12,0,.31,0,.56H430a4.82,4.82,0,0,0,1.16,3.14,3.44,3.44,0,0,0,2.6,1.09,3.18,3.18,0,0,0,2-.61A4,4,0,0,0,437,557.11Zm-6.92-3.41h7a4.24,4.24,0,0,0-.8-2.36,3.23,3.23,0,0,0-2.61-1.22,3.4,3.4,0,0,0-2.45,1A3.86,3.86,0,0,0,430.09,553.7Z"/><path d="M450.36,557.11l2.18.27a5.29,5.29,0,0,1-1.91,3,5.77,5.77,0,0,1-3.56,1.06,5.69,5.69,0,0,1-4.33-1.69,6.54,6.54,0,0,1-1.6-4.71,6.88,6.88,0,0,1,1.62-4.88,5.47,5.47,0,0,1,4.19-1.73,5.3,5.3,0,0,1,4.08,1.7,6.76,6.76,0,0,1,1.58,4.78c0,.12,0,.31,0,.56h-9.28a4.77,4.77,0,0,0,1.16,3.14,3.43,3.43,0,0,0,2.6,1.09,3.22,3.22,0,0,0,2-.61A4,4,0,0,0,450.36,557.11Zm-6.92-3.41h6.94a4.17,4.17,0,0,0-.79-2.36,3.25,3.25,0,0,0-2.62-1.22,3.39,3.39,0,0,0-2.44,1A3.86,3.86,0,0,0,443.44,553.7Z"/><path d="M455.2,561.11V543.93h2.11v9.8l5-5.06H465l-4.75,4.62,5.23,7.82h-2.6l-4.11-6.36-1.49,1.43v4.93Z"/><path d="M475.71,557.11l2.18.27a5.34,5.34,0,0,1-1.91,3,5.77,5.77,0,0,1-3.56,1.06,5.69,5.69,0,0,1-4.33-1.69,6.54,6.54,0,0,1-1.6-4.71,6.92,6.92,0,0,1,1.61-4.88,5.5,5.5,0,0,1,4.2-1.73,5.31,5.31,0,0,1,4.08,1.7,6.76,6.76,0,0,1,1.58,4.78c0,.12,0,.31,0,.56h-9.28a4.72,4.72,0,0,0,1.16,3.14,3.43,3.43,0,0,0,2.6,1.09,3.22,3.22,0,0,0,2-.61A4,4,0,0,0,475.71,557.11Zm-6.93-3.41h7a4.24,4.24,0,0,0-.79-2.36,3.27,3.27,0,0,0-2.62-1.22,3.37,3.37,0,0,0-2.44,1A3.87,3.87,0,0,0,468.78,553.7Z"/><path d="M480.54,561.11V548.67h1.9v1.77a4.46,4.46,0,0,1,4-2.05,5.12,5.12,0,0,1,2.06.4,3.3,3.3,0,0,1,1.42,1.06,4.06,4.06,0,0,1,.65,1.56,11.84,11.84,0,0,1,.12,2.05v7.65h-2.11v-7.57a5.45,5.45,0,0,0-.25-1.92,2,2,0,0,0-.87-1,2.73,2.73,0,0,0-1.47-.38,3.43,3.43,0,0,0-2.33.85c-.65.57-1,1.65-1,3.25v6.79Z"/><path d="M502,561.11v-1.57a3.87,3.87,0,0,1-3.48,1.86,5,5,0,0,1-2.74-.82,5.47,5.47,0,0,1-1.93-2.3,7.85,7.85,0,0,1-.69-3.38,8.92,8.92,0,0,1,.62-3.38,4.9,4.9,0,0,1,4.64-3.13,4.12,4.12,0,0,1,3.44,1.71v-6.17h2.1v17.18Zm-6.67-6.21a5.42,5.42,0,0,0,1,3.58,3,3,0,0,0,4.73,0,5.22,5.22,0,0,0,1-3.45,5.84,5.84,0,0,0-1-3.75,3,3,0,0,0-2.43-1.2,3,3,0,0,0-2.35,1.15A5.73,5.73,0,0,0,495.29,554.9Z"/><path class="cls-2" d="M80.07,520.09,90,494.32h3.68l10.54,25.77H100.3l-3-7.8H86.52l-2.83,7.8Zm7.43-10.58h8.74l-2.69-7.14q-1.23-3.24-1.83-5.34A32.89,32.89,0,0,1,90.33,502Z"/><path class="cls-2" d="M107.26,520.09v-16.2h-2.79v-2.46h2.79v-2a8.85,8.85,0,0,1,.33-2.8,4.06,4.06,0,0,1,1.61-2,5.82,5.82,0,0,1,3.23-.77,15.58,15.58,0,0,1,2.95.32l-.47,2.76a10.4,10.4,0,0,0-1.87-.17,2.78,2.78,0,0,0-2,.61,3.38,3.38,0,0,0-.59,2.3v1.73h3.64v2.46h-3.64v16.2Z"/><path class="cls-2" d="M116.44,520.09V494.32h3.16v25.77Z"/><path class="cls-2" d="M137.28,514.08l3.27.41a7.93,7.93,0,0,1-2.86,4.44,9.68,9.68,0,0,1-11.84-.94,9.85,9.85,0,0,1-2.4-7.07q0-4.71,2.43-7.31a8.18,8.18,0,0,1,6.29-2.61,8,8,0,0,1,6.12,2.55q2.37,2.55,2.37,7.17c0,.19,0,.47,0,.85H126.72a7.2,7.2,0,0,0,1.74,4.71,5.16,5.16,0,0,0,3.9,1.63,4.83,4.83,0,0,0,3-.91A6.06,6.06,0,0,0,137.28,514.08ZM126.89,509h10.43a6.33,6.33,0,0,0-1.2-3.54,4.82,4.82,0,0,0-3.92-1.82,5,5,0,0,0-3.66,1.45A5.83,5.83,0,0,0,126.89,509Z"/><path class="cls-2" d="M149.71,520.09l-7.1-18.66H146l4,11.18c.43,1.2.83,2.46,1.19,3.76.28-1,.68-2.17,1.18-3.55l4.15-11.39h3.25l-7.07,18.66Z"/><path class="cls-2" d="M175.31,514.08l3.26.41a7.93,7.93,0,0,1-2.86,4.44,9.68,9.68,0,0,1-11.84-.94,9.85,9.85,0,0,1-2.4-7.07q0-4.71,2.43-7.31a8.18,8.18,0,0,1,6.29-2.61,8,8,0,0,1,6.12,2.55q2.37,2.55,2.37,7.17c0,.19,0,.47,0,.85H164.74a7.2,7.2,0,0,0,1.74,4.71,5.16,5.16,0,0,0,3.9,1.63,4.83,4.83,0,0,0,3-.91A6.14,6.14,0,0,0,175.31,514.08ZM164.92,509h10.42a6.33,6.33,0,0,0-1.2-3.54,4.82,4.82,0,0,0-3.91-1.82,5,5,0,0,0-3.67,1.45A5.78,5.78,0,0,0,164.92,509Z"/><path class="cls-2" d="M182.51,520.09V501.43h2.85v2.83a7.76,7.76,0,0,1,2-2.62,3.47,3.47,0,0,1,2-.64,6.15,6.15,0,0,1,3.25,1L191.56,505a4.48,4.48,0,0,0-2.32-.69,3,3,0,0,0-1.86.63,3.39,3.39,0,0,0-1.18,1.73,12.33,12.33,0,0,0-.52,3.69v9.77Z"/><path class="cls-2" d="M194.55,498v-3.64h3.17V498Zm0,22.13V501.43h3.17v18.66Z"/><path class="cls-2" d="M202.53,520.09V501.43h2.85v2.65a6.71,6.71,0,0,1,5.94-3.08,7.91,7.91,0,0,1,3.11.61,4.82,4.82,0,0,1,2.11,1.59,6.18,6.18,0,0,1,1,2.34,19.08,19.08,0,0,1,.17,3.08v11.47h-3.16V508.74a8.41,8.41,0,0,0-.37-2.89,3,3,0,0,0-1.31-1.53,4.18,4.18,0,0,0-2.21-.57,5.08,5.08,0,0,0-3.48,1.28c-1,.85-1.47,2.48-1.47,4.87v10.19Z"/><path class="cls-2" d="M222,521.64l3.07.46a2.94,2.94,0,0,0,1.07,2.07,5.26,5.26,0,0,0,3.22.88,5.59,5.59,0,0,0,3.39-.88,4.27,4.27,0,0,0,1.62-2.46,20.61,20.61,0,0,0,.23-4.06,6.5,6.5,0,0,1-5.17,2.44,7,7,0,0,1-6-2.77,10.77,10.77,0,0,1-2.11-6.67,12.32,12.32,0,0,1,1-4.93,7.76,7.76,0,0,1,2.8-3.49,7.61,7.61,0,0,1,4.32-1.23,6.68,6.68,0,0,1,5.45,2.68v-2.25h2.92v16.13a15.31,15.31,0,0,1-.89,6.18,6.56,6.56,0,0,1-2.81,2.88,9.83,9.83,0,0,1-4.74,1,9,9,0,0,1-5.4-1.5A5.08,5.08,0,0,1,222,521.64Zm2.61-11.21q0,3.66,1.46,5.36a4.65,4.65,0,0,0,3.66,1.68,4.72,4.72,0,0,0,3.66-1.67q1.47-1.68,1.47-5.27a7.64,7.64,0,0,0-1.52-5.17,4.69,4.69,0,0,0-3.66-1.74,4.56,4.56,0,0,0-3.59,1.72A7.63,7.63,0,0,0,224.59,510.43Z"/></svg>