<svg xmlns="http://www.w3.org/2000/svg" viewBox="0 0 21 21">
  <defs>
    <style>
      .cls-1 {
        fill: #4c374b;
      }
    </style>
  </defs>
  <path id="ic_unarchive_24px" class="cls-1" d="M23.475,5.59,21.853,3.63A1.761,1.761,0,0,0,20.5,3H6.5a1.693,1.693,0,0,0-1.342.642L3.537,5.59A2.316,2.316,0,0,0,3,7.083V21.667A2.333,2.333,0,0,0,5.333,24H21.667A2.34,2.34,0,0,0,24,21.667V7.083a2.372,2.372,0,0,0-.525-1.493ZM13.5,10.583,19.917,17H15.833v2.333H11.167V17H7.083ZM5.473,5.333,6.43,4.167h14l1.085,1.167Z" transform="translate(-3 -3)"/>
</svg>
