<svg xmlns="http://www.w3.org/2000/svg" viewBox="0 0 15 19.688">
  <defs>
    <style>
      .cls-1 {
        fill: #4c374b;
      }
    </style>
  </defs>
  <path id="ic_lock_outline_24px" class="cls-1" d="M11.5,16a1.875,1.875,0,1,0-1.875-1.875A1.881,1.881,0,0,0,11.5,16Zm5.625-8.438h-.937V5.688a4.688,4.688,0,1,0-9.375,0V7.563H5.875A1.881,1.881,0,0,0,4,9.438v9.375a1.881,1.881,0,0,0,1.875,1.875h11.25A1.881,1.881,0,0,0,19,18.813V9.438A1.881,1.881,0,0,0,17.125,7.563ZM8.594,5.688a2.906,2.906,0,0,1,5.813,0V7.563H8.594Zm8.531,13.125H5.875V9.438h11.25Z" transform="translate(-4 -1)"/>
</svg>
