<svg xmlns="http://www.w3.org/2000/svg" viewBox="0 0 16.5 11">
  <defs>
    <style>
      .cls-1 {
        fill: #4c374b;
      }
    </style>
  </defs>
  <path id="ic_insert_link_24px" class="cls-1" d="M3.567,12.5c0-1.881,1.147-3.41,2.558-3.41h3.3V7h-3.3C3.848,7,2,9.464,2,12.5S3.848,18,6.125,18h3.3V15.91h-3.3C4.714,15.91,3.567,14.381,3.567,12.5ZM6.95,13.6h6.6V11.4H6.95ZM14.375,7h-3.3V9.09h3.3c1.411,0,2.558,1.529,2.558,3.41s-1.147,3.41-2.558,3.41h-3.3V18h3.3c2.277,0,4.125-2.464,4.125-5.5S16.652,7,14.375,7Z" transform="translate(-2 -7)"/>
</svg>
