<svg xmlns="http://www.w3.org/2000/svg" viewBox="0 0 15 15">
  <defs>
    <style>
      .cls-1 {
        fill: #4c374b;
      }
    </style>
  </defs>
  <path id="ic_picture_as_pdf_24px" class="cls-1" d="M15.5,2h-9A1.5,1.5,0,0,0,5,3.5v9A1.5,1.5,0,0,0,6.5,14h9A1.5,1.5,0,0,0,17,12.5v-9A1.5,1.5,0,0,0,15.5,2ZM9.125,7.625A1.123,1.123,0,0,1,8,8.75H7.25v1.5H6.125V5.75H8A1.123,1.123,0,0,1,9.125,6.875Zm3.75,1.5A1.123,1.123,0,0,1,11.75,10.25H9.875V5.75H11.75a1.123,1.123,0,0,1,1.125,1.125Zm3-2.25H14.75v.75h1.125V8.75H14.75v1.5H13.625V5.75h2.25Zm-8.625.75H8v-.75H7.25ZM3.5,5H2V15.5A1.5,1.5,0,0,0,3.5,17H14V15.5H3.5ZM11,9.125h.75V6.875H11Z" transform="translate(-2 -2)"/>
</svg>
