<svg xmlns="http://www.w3.org/2000/svg" viewBox="0 0 12.347 9.27">
  <defs>
    <style>
      .cls-1 {
        fill: #fff;
      }
    </style>
  </defs>
  <g id="Symbol_148_1" data-name="Symbol 148 – 1" transform="translate(-168 -264)">
    <path id="Path_178" data-name="Path 178" class="cls-1" d="M0,8.431V.759A.789.789,0,0,1,.24.2.76.76,0,0,1,.759,0H5.195a.454.454,0,0,1,.32.12.537.537,0,0,1,.24.28l.4,1.119h5.394a.789.789,0,0,1,.559.24.726.726,0,0,1,.24.559V8.471a.789.789,0,0,1-.24.559.726.726,0,0,1-.559.24H.759A.789.789,0,0,1,.2,9.031,1.077,1.077,0,0,1,0,8.431Z" transform="translate(168 264)"/>
  </g>
</svg>
