<svg xmlns="http://www.w3.org/2000/svg" viewBox="0 0 25 18.77">
  <defs>
    <style>
      .cls-1 {
        fill: #4c374b;
      }
    </style>
  </defs>
  <g id="Symbol_148_1" data-name="Symbol 148 – 1" transform="translate(-168 -264)">
    <path id="Path_178" data-name="Path 178" class="cls-1" d="M0,17.071V1.537A1.6,1.6,0,0,1,.485.4,1.538,1.538,0,0,1,1.537,0h8.981a.919.919,0,0,1,.647.243,1.088,1.088,0,0,1,.485.566l.809,2.265H23.382a1.6,1.6,0,0,1,1.133.485A1.469,1.469,0,0,1,25,4.693v12.46a1.6,1.6,0,0,1-.485,1.133,1.469,1.469,0,0,1-1.133.485H1.537A1.6,1.6,0,0,1,.4,18.285,2.18,2.18,0,0,1,0,17.071Z" transform="translate(168 264)"/>
  </g>
</svg>
