<svg xmlns="http://www.w3.org/2000/svg" viewBox="0 0 15 16">
  <defs>
    <style>
      .cls-1 {
        fill: #4c374b;
      }
    </style>
  </defs>
  <path id="ic_share_24px" class="cls-1" d="M15.5,13.309a2.477,2.477,0,0,0-1.633.618L7.925,10.594A2.54,2.54,0,0,0,8,10.032a2.54,2.54,0,0,0-.075-.562l5.875-3.3a2.54,2.54,0,0,0,1.7.651A2.453,2.453,0,0,0,18,4.41a2.5,2.5,0,0,0-5,0,2.54,2.54,0,0,0,.075.562L7.2,8.273a2.54,2.54,0,0,0-1.7-.651,2.411,2.411,0,1,0,0,4.819,2.54,2.54,0,0,0,1.7-.651l5.933,3.341a2.188,2.188,0,0,0-.067.522A2.435,2.435,0,1,0,15.5,13.309Z" transform="translate(-3 -2)"/>
</svg>
