<svg xmlns="http://www.w3.org/2000/svg" viewBox="0 0 18.813 12.542">
  <defs>
    <style>
      .cls-1 {
        fill: #4c374b;
      }
    </style>
  </defs>
  <path id="ic_insert_link_24px" class="cls-1" d="M3.787,13.271c0-2.145,1.307-3.888,2.916-3.888h3.763V7H6.7C4.107,7,2,9.809,2,13.271s2.107,6.271,4.7,6.271h3.763V17.159H6.7C5.095,17.159,3.787,15.416,3.787,13.271Zm3.857,1.254h7.525V12.017H7.644ZM16.11,7H12.347V9.383H16.11c1.608,0,2.916,1.743,2.916,3.888s-1.307,3.888-2.916,3.888H12.347v2.383H16.11c2.6,0,4.7-2.809,4.7-6.271S18.706,7,16.11,7Z" transform="translate(-2 -7)"/>
</svg>
